# xmcd
#
# Track frame offsets:
#	150
#	13932
#	26074
#	39563
#	52766
#	63066
#	76676
#	89005
#	101137
#	113129
#	125664
#	136612
#	149503
#	160832
#	172165
#	185442
#	198925
#	212460
#
# Disc length: 2991 seconds
#
# Revision: 0
# Processed by: cddbd v1.5.1PL0 Copyright (c) Steve Scherf et al.
# Submitted via: dBpowerAMP V4.0
#
DISCID=f40bad12
DTITLE=Various Artist - Blues History - The Thirties - CD6
DYEAR=2005
DGENRE=Blues
TTITLE0=If The Sea Was Whiskey
TTITLE1=Don't Be So Evil
TTITLE2=Backwater Blues
TTITLE3=Walkin' Blues
TTITLE4=You're Gonna Miss Me
TTITLE5=Hobo Blues
TTITLE6=Midnight Blues
TTITLE7=Miss Martha King
TTITLE8=She's My Old Time Used To Be
TTITLE9=Huckle Up Baby
TTITLE10=I'm Just A Lady's Man
TTITLE11=Walkin' And Cryin'
TTITLE12=Story To Tell
TTITLE13=She's Dynamite
TTITLE14=She Moves Me
TTITLE15=The Midnight Hour
TTITLE16=Three O'Clock Blues
TTITLE17=Mess Around
EXTD=
EXTT0=
EXTT1=
EXTT2=
EXTT3=
EXTT4=
EXTT5=
EXTT6=
EXTT7=
EXTT8=
EXTT9=
EXTT10=
EXTT11=
EXTT12=
EXTT13=
EXTT14=
EXTT15=
EXTT16=
EXTT17=
PLAYORDER=
